<svg id="Layer_1" data-name="Layer 1" xmlns="http://www.w3.org/2000/svg" viewBox="0 0 369.477 349.445"><title>logo</title><path d="M184.1,319.329" fill="#f5912e"/><path d="M303.787,106.547h0c-3.935-1.356-7.9-2.595-11.889-3.75.67-2.7,1.273-5.392,1.842-8.105,9.009-43.7,3.114-78.919-16.979-90.506-19.274-11.119-50.805.468-82.637,28.181-3.131,2.73-6.212,5.56-9.193,8.44-2.009-1.926-4.052-3.8-6.128-5.66C145.43,5.525,111.99-6.967,91.913,4.654,72.656,15.807,66.946,48.9,75.051,90.322c.8,4.1,1.725,8.188,2.729,12.24-4.739,1.34-9.31,2.78-13.68,4.3C24.967,120.513,0,141.9,0,164.066c0,22.907,26.809,45.865,67.566,59.8q4.948,1.682,10,3.131-1.633,6.555-2.9,13.195C66.93,280.9,72.974,313.2,92.181,324.282c19.843,11.437,53.132-.318,85.55-28.651,2.562-2.243,5.141-4.621,7.7-7.1q4.872,4.7,9.98,9.109c31.4,27.026,62.408,37.927,81.6,26.825,19.826-11.47,26.256-46.182,17.9-88.43-.636-3.232-1.39-6.514-2.21-9.879,2.344-.687,4.638-1.407,6.865-2.144,42.365-14.032,69.91-36.721,69.91-59.93C369.477,141.812,343.69,120.3,303.787,106.547ZM204.473,44.273c27.277-23.744,52.78-33.105,64.384-26.407,12.374,7.134,17.18,35.918,9.411,73.644-.5,2.462-1.072,4.907-1.658,7.351a379.423,379.423,0,0,0-49.4-7.8,373.051,373.051,0,0,0-31.229-38.982C198.729,49.4,201.576,46.8,204.473,44.273Zm-95.38,138.732q5.023,9.671,10.483,19.123,5.576,9.62,11.6,18.972a338.238,338.238,0,0,1-34.059-5.476A345.225,345.225,0,0,1,109.093,183.005Zm-.033-37.124c-4.588-10.9-8.523-21.617-11.738-31.966,10.549-2.361,21.785-4.287,33.49-5.743q-5.879,9.168-11.32,18.62C115.875,133.055,112.392,139.435,109.06,145.881Zm8.406,18.554q7.284-15.2,15.723-29.79h0q8.415-14.592,17.917-28.516c10.985-.837,22.254-1.273,33.641-1.273,11.437,0,22.723.436,33.708,1.273q9.393,13.89,17.8,28.416,8.439,14.568,15.924,29.639-7.41,15.22-15.874,29.906h0q-8.39,14.593-17.733,28.6c-10.968.787-22.288,1.189-33.842,1.189-11.5,0-22.689-.351-33.456-1.055q-9.57-13.965-18.051-28.65Q124.784,179.656,117.466,164.435Zm132.5,37.575q5.576-9.669,10.716-19.574h0a332.884,332.884,0,0,1,12.408,32.5,334.142,334.142,0,0,1-34.461,5.878Q244.485,211.521,249.969,202.01Zm10.566-56.129L249.9,126.658h0q-5.425-9.369-11.236-18.47c11.788,1.491,23.091,3.467,33.691,5.895A336.83,336.83,0,0,1,260.535,145.881ZM184.914,63.362a334.078,334.078,0,0,1,21.735,26.256q-21.826-1.029-43.67-.016C170.162,80.124,177.513,71.333,184.914,63.362ZM99.8,18.335c12.358-7.15,39.7,3.048,68.5,28.634q2.763,2.461,5.543,5.124a379.475,379.475,0,0,0-31.48,38.949,384.494,384.494,0,0,0-49.3,7.669q-1.406-5.652-2.545-11.387h0C83.574,51.825,88.2,25.05,99.8,18.335ZM81.782,211.773q-4.6-1.306-9.126-2.864c-18.017-6.162-32.887-14.166-43.1-22.89-9.16-7.853-13.8-15.64-13.8-21.969,0-13.447,20.06-30.61,53.517-42.281q6.3-2.186,12.709-4a379.056,379.056,0,0,0,18,46.668A389.653,389.653,0,0,0,81.782,211.773Zm85.534,71.936c-14.334,12.525-28.7,21.417-41.361,25.888h0c-11.369,4.018-20.428,4.136-25.9.971-11.654-6.715-16.494-32.67-9.9-67.482q1.18-6.18,2.7-12.274a368.912,368.912,0,0,0,49.8,7.2A383.056,383.056,0,0,0,174.365,277.2C172.071,279.456,169.71,281.616,167.316,283.709Zm18.034-17.833c-7.485-8.071-14.937-17-22.237-26.608q10.6.427,21.617.418,11.3,0,22.305-.5A335.732,335.732,0,0,1,185.35,265.876ZM281.2,287.845c-2.194,11.855-6.631,19.776-12.09,22.941-11.638,6.748-36.554-2.027-63.4-25.135q-4.621-3.968-9.294-8.473A371.342,371.342,0,0,0,227.4,237.845a366.8,366.8,0,0,0,50.034-7.72q1.131,4.572,1.993,8.942h0C283.107,257.754,283.643,274.633,281.2,287.845Zm13.4-78.835h0c-2.026.67-4.1,1.323-6.213,1.942a369.594,369.594,0,0,0-18.7-46.8,371.1,371.1,0,0,0,17.984-46.132q5.678,1.632,10.985,3.466c34.193,11.772,55.041,29.17,55.041,42.582C353.687,178.35,331.165,196.886,294.594,209.01Z" fill="#334564"/><path d="M172.763,198.958l12,150.487L196.78,198.809a34.389,34.389,0,0,1-24.017.149Z" fill="#f5912e"/><path d="M213.562,166.678a28.986,28.986,0,1,0-28.986,28.986A29.018,29.018,0,0,0,213.562,166.678Zm-28.986,10.031a10.031,10.031,0,1,1,10.031-10.031A10.031,10.031,0,0,1,184.576,176.709Z" fill="#f5912e"/><path d="M218.947,166.678a34.372,34.372,0,1,0-22.167,32.131A34.41,34.41,0,0,0,218.947,166.678Zm-63.357,0a28.986,28.986,0,1,1,28.986,28.986A29.018,29.018,0,0,1,155.59,166.678Z" fill="#fff"/><circle cx="184.576" cy="166.678" r="10.031" fill="#6ecff0"/></svg>